<svg width="20" height="20" viewBox="0 0 20 20" fill="none" xmlns="http://www.w3.org/2000/svg">
<path d="M17.9553 6.61623C17.7209 6.38189 17.403 6.25024 17.0716 6.25024C16.7401 6.25024 16.4222 6.38189 16.1878 6.61623L10.0003 12.8037L3.8128 6.61623C3.57705 6.38853 3.2613 6.26254 2.93355 6.26538C2.60581 6.26823 2.29229 6.39969 2.06053 6.63145C1.82877 6.86321 1.69731 7.17673 1.69446 7.50448C1.69161 7.83222 1.81761 8.14797 2.04531 8.38373L9.11656 15.455C9.35097 15.6893 9.66885 15.821 10.0003 15.821C10.3318 15.821 10.6496 15.6893 10.8841 15.455L17.9553 8.38373C18.1896 8.14932 18.3213 7.83143 18.3213 7.49998C18.3213 7.16852 18.1896 6.85064 17.9553 6.61623Z" fill="black"/>
</svg>
